<?xml version="1.0" encoding="utf-8"?>
<!-- Generator: Adobe Illustrator 16.0.0, SVG Export Plug-In . SVG Version: 6.00 Build 0)  -->
<!DOCTYPE svg PUBLIC "-//W3C//DTD SVG 1.1//EN" "http://www.w3.org/Graphics/SVG/1.1/DTD/svg11.dtd">
<svg version="1.1" id="レイヤー_1" xmlns="http://www.w3.org/2000/svg" xmlns:xlink="http://www.w3.org/1999/xlink" x="0px"
	 y="0px" width="284.264px" height="32.24px" viewBox="0 0 284.264 32.24" enable-background="new 0 0 284.264 32.24"
	 xml:space="preserve">
<g>
	<g>
		<path d="M174.056,7.245V1.779c0-0.89-0.721-1.61-1.609-1.61h-0.002c-0.89,0-1.61,0.721-1.61,1.61v5.466h-2.474
			c-0.888,0-1.609,0.722-1.609,1.61c0,0.89,0.721,1.611,1.609,1.611h2.444c-0.219,4.015-1.756,9.27-3.773,11.52v4.765
			c1.32-1.01,2.657-2.746,3.802-4.912v9.895h3.221V19.729c1.099,1.153,2.148,2.462,2.984,3.699v-4.402
			c-0.958-1.532-1.821-2.484-2.984-3.732v-4.829h2.984V7.245H174.056z"/>
		<path d="M186.366,17.763h5.515v-3.222h-5.568V8.862h4.877V5.643h-4.877V1.779c0-0.89-0.721-1.61-1.607-1.61H184.7
			c-0.89,0-1.609,0.721-1.609,1.61v3.864h-1.441c0.049-0.506,0.074-1.007,0.085-1.503c0-0.887-0.721-1.608-1.61-1.608h-0.002
			c-0.89,0-1.609,0.721-1.609,1.608h0.003c-0.046,1.771-0.101,4.36-1.475,6.326v3.924c2.067-0.909,3.34-3.047,4.034-5.528h2.016
			v5.679h-4.391c-0.89,0-1.608,0.72-1.608,1.609c0,0.89,0.719,1.612,1.608,1.612h4.386c-0.799,3.45-3.461,7.199-5.552,9.486v4.411
			c1.753-1.706,3.85-4.131,5.558-6.698v6.771h3.222v-6.843c1.716,2.593,3.838,5.046,5.607,6.77v-4.411
			C189.827,24.962,187.168,21.213,186.366,17.763"/>
		<path d="M206.119,17.666h4.151v-3.221h-10.045c-0.89,0-1.611,0.721-1.611,1.61c0,0.89,0.721,1.611,1.611,1.611h2.673v10.447
			c-1.21,0.189-2.448,0.294-3.71,0.304c-0.888,0-1.61,0.72-1.61,1.61c0,0.889,0.722,1.609,1.61,1.609
			c5.006-0.035,9.705-1.371,13.769-3.692v-3.788c-2.08,1.403-4.379,2.498-6.837,3.228V17.666z"/>
		<path d="M219.456,0.344c-0.89,0-1.609,0.721-1.609,1.61c0,0.888,0.719,1.609,1.609,1.609h3.317v-3.22H219.456z"/>
		<path d="M215.91,1.778c0-0.892-0.721-1.611-1.61-1.611c-0.893,0-1.612,0.719-1.612,1.611v3.865h-13.471
			c-0.888,0-1.61,0.721-1.61,1.609s0.722,1.609,1.61,1.609h13.471v2.172c0,10.818,3.916,15.944,10.003,20.692v-4.28
			c-4.344-3.441-6.783-9.099-6.783-16.412c0-0.044,0.002-2.172,0.002-2.172h6.864V5.643h-6.864V1.778z"/>
		<path d="M231.833,14.218c0,0.892,0.717,1.611,1.61,1.611h16.679v-3.219h-16.679C232.55,12.609,231.833,13.33,231.833,14.218"/>
		<path d="M237.461,22.217h16.061v-3.218h-23.479c-0.89,0-1.609,0.719-1.609,1.607c0,0.891,0.72,1.611,1.609,1.611h3.992
			l-2.253,6.193c-0.243-0.003-0.482-0.005-0.726-0.01v0.017c-0.889,0-1.611,0.72-1.611,1.61c0,0.889,0.722,1.609,1.611,1.609v-0.01
			c0.422,0.007,0.844,0.01,1.269,0.01c5.541,0,10.943-0.569,16.167-1.638l0.585,1.606h3.428l-2.857-7.847
			c-0.302-0.835-1.229-1.266-2.064-0.961c-0.835,0.303-1.265,1.228-0.962,2.063l0.755,2.076c-3.95,0.784-8.007,1.267-12.149,1.42
			L237.461,22.217z"/>
		<path d="M240.978,4.337c2.813,4.366,7.293,7.558,12.538,8.683V9.712c-5.043-1.305-9.163-4.913-11.164-9.634h-1.375h-1.376
			c-1.999,4.721-6.12,8.329-11.165,9.634v3.309C233.684,11.896,238.163,8.704,240.978,4.337"/>
		<path d="M278.117,27.672V11.92h4.313V8.701h-4.313V1.779c0-0.89-0.721-1.61-1.609-1.61h-0.003c-0.89,0-1.612,0.721-1.612,1.61
			v6.921h-3.189c-0.89,0-1.61,0.721-1.61,1.609c0,0.891,0.721,1.61,1.61,1.61h3.189v15.752h-5.023c-0.887,0-1.607,0.721-1.607,1.61
			c0,0.889,0.721,1.609,1.607,1.609h14.395v-3.219H278.117z"/>
		<path d="M270.36,24.296v-4.555l-3.534-3.531c1.43-3.032,2.237-6.415,2.249-9.985h-2.773V1.769c0-0.888-0.719-1.608-1.607-1.608
			h-0.004c-0.888,0-1.61,0.721-1.61,1.608v4.456h-2.291c-0.886,0-1.608,0.721-1.608,1.61c0,0.888,0.722,1.611,1.608,1.611h4.799
			c-0.753,4.64-3.075,8.756-6.407,11.783v4.128c1.427-1.018,2.736-2.194,3.898-3.498v9.875h3.222V20.239L270.36,24.296z"/>
		<path d="M142.077,14.007h4.972v1.826h-4.972V14.007z M145.042,5.448h7.398v1.587h-7.398V5.448 M155.229,15.835h-4.962v-1.827
			h4.962V15.835 M150.268,9.609h4.963v1.824h-4.963V9.609 M142.077,9.609h4.972v1.824h-4.972V9.609 M153.799,23.301h7.006v-3.219
			h-10.537V18.41h7.002h1.18V7.035h-1.18h-1.608V5.448h5.143V2.23h-5.143V1.694c0-0.89-0.721-1.612-1.61-1.612
			c-0.888,0-1.609,0.722-1.609,1.612V2.23h-7.4V1.694c0-0.89-0.72-1.612-1.608-1.612c-0.889,0-1.609,0.722-1.609,1.612V2.23h-4.777
			c-0.887,0-1.608,0.723-1.608,1.611c0,0.887,0.722,1.607,1.608,1.607h4.777v1.587h-1.357h-0.003c-0.088,0-0.175,0.009-0.26,0.026
			c-0.764,0.124-1.348,0.783-1.348,1.583v9.765h2.483h0.001h5.708v1.672h-10c-0.887,0-1.608,0.721-1.608,1.611
			c0,0.887,0.722,1.608,1.608,1.608h6.477c-1.377,2.523-4.254,4.792-7.296,5.283v3.248c4.896-0.591,9.202-4.267,10.793-8.531h0.026
			v8.426h3.219v-8.426h0.032c1.592,4.264,5.897,7.94,10.794,8.531v-3.248C158.051,28.094,155.174,25.825,153.799,23.301"/>
		<path d="M109.974,11.465h3.553l-4.344-9.317c-0.377-0.805-1.333-1.156-2.14-0.779c-0.805,0.376-1.154,1.333-0.778,2.139
			L109.974,11.465z"/>
		<path d="M128.227,3.508c0.375-0.806,0.026-1.763-0.78-2.139c-0.805-0.377-1.762-0.026-2.138,0.779l-4.345,9.317h3.551
			L128.227,3.508z"/>
		<path d="M129.798,13.813h-10.945V1.668c0-0.89-0.72-1.61-1.61-1.61c-0.888,0-1.608,0.721-1.608,1.61v12.146h-9.785
			c-0.89,0-1.61,0.719-1.61,1.607c0,0.889,0.72,1.609,1.61,1.609h6.518c-0.708,5.258-3.36,8.188-7.549,10.962v3.717
			c5.805-3.217,9.918-7.892,10.731-14.679h0.084v14.766h3.218V17.03h0.085c0.818,6.832,4.982,11.529,10.848,14.744V28.07
			c-4.256-2.798-6.951-5.731-7.666-11.04h7.678V13.813z"/>
		<path d="M62.842,5.457h5.187V2.239h-5.187V1.7c0-0.887-0.722-1.608-1.609-1.608c-0.89,0-1.61,0.721-1.61,1.608v0.539h-7.399V1.7
			c0-0.887-0.72-1.608-1.609-1.608c-0.889,0-1.609,0.721-1.609,1.608v0.539h-4.733c-0.89,0-1.61,0.722-1.61,1.608
			c0,0.888,0.72,1.609,1.61,1.609h4.733v1.565h3.218V5.457h7.399v1.565h1.446c-0.85,0.028-1.533,0.711-1.554,1.563H45.245
			c-0.887,0-1.608,0.721-1.608,1.609v14.753c0,1.182-0.516,2.221-1.332,2.936v3.721c2.628-1.029,4.494-3.539,4.545-6.529h0.006
			V11.804h12.655v6.028h0.002c0.02,2.951,0.845,5.709,2.267,8.066c-0.692,0.818-1.485,1.547-2.362,2.168v3.755
			c1.632-0.845,3.095-1.967,4.334-3.3c1.22,1.312,2.659,2.419,4.259,3.26v-3.772c-0.845-0.608-1.61-1.318-2.283-2.111
			c1.422-2.358,2.25-5.114,2.267-8.065h0.002v-2.186c0-0.89-0.721-1.61-1.608-1.61c-0.891,0-1.609,0.72-1.609,1.61v2.09h-0.002
			c0,1.768-0.367,3.448-1.024,4.978c-0.656-1.529-1.024-3.209-1.024-4.978v-5.932h5.298V8.585h-0.038
			c-0.042-0.852-0.739-1.529-1.601-1.529c-0.862,0-1.56,0.677-1.602,1.529h-2.062c-0.022-0.852-0.703-1.535-1.553-1.563h1.669V5.457
			z"/>
		<path d="M52.987,18.493h-1.919v-2.129h1.919V18.493z M55.028,23.445h-3.96v-2.268h3.96V23.445 M52.987,28.306h-1.919v-2.177h1.919
			V28.306 M49.725,13.679L49.725,13.679c-0.093,0-0.183,0.01-0.271,0.029c-0.174,0.035-0.338,0.105-0.48,0.201
			c-0.142,0.095-0.265,0.219-0.362,0.362c-0.145,0.214-0.229,0.471-0.229,0.751v15.961h1.288c0.02,0.001,0.036,0.005,0.055,0.005
			h7.987v-2.684h-2.042v-2.175h2.042v-1.544v-1.142v-2.268v-2.684h-2.042v-2.129h2.042v-2.685H49.725"/>
		<path d="M88.426,27.667V16.621h8.304v-3.335h-8.304V4.742h9.305V1.408H76.805c-0.921,0-1.666,0.745-1.666,1.667
			c0,0.92,0.745,1.667,1.666,1.667h8.207v8.544h-7.207c-0.92,0-1.667,0.747-1.667,1.668c0,0.92,0.747,1.667,1.667,1.667h7.207
			v11.045H75.47c-0.921,0-1.666,0.747-1.666,1.667c0,0.922,0.745,1.668,1.666,1.668h23.593v-3.335H88.426z"/>
		<path d="M142.018,13.999h4.968v1.826h-4.968V13.999z M144.982,5.445h7.395v1.584h-7.395V5.445 M155.163,15.824h-4.96v-1.826h4.96
			V15.824 M150.203,9.604h4.96v1.824h-4.96V9.604 M142.018,9.604h4.968v1.824h-4.968V9.604 M153.732,23.288h7V20.07h-10.53v-1.672h7
			h1.179V7.029h-1.179h-1.609V5.445h5.14V2.229h-5.14V1.691c0-0.887-0.72-1.609-1.609-1.609c-0.887,0-1.607,0.722-1.607,1.609v0.537
			h-7.395V1.691c0-0.887-0.721-1.609-1.607-1.609c-0.889,0-1.61,0.722-1.61,1.609v0.537h-4.772c-0.889,0-1.608,0.721-1.608,1.61
			c0,0.885,0.719,1.606,1.608,1.606h4.772v1.584h-1.355h-0.003c-0.088,0-0.174,0.009-0.259,0.026
			c-0.765,0.125-1.349,0.784-1.349,1.584v9.758h2.482h0.001h5.704v1.672h-9.993c-0.889,0-1.608,0.72-1.608,1.608
			c0,0.89,0.719,1.609,1.608,1.609h6.472c-1.374,2.523-4.25,4.791-7.291,5.277v3.245c4.894-0.589,9.197-4.264,10.787-8.522h0.025
			v8.417h3.217v-8.417h0.033c1.591,4.259,5.893,7.934,10.786,8.522v-3.245C157.982,28.078,155.107,25.811,153.732,23.288"/>
		<path d="M109.938,11.458h3.548l-4.341-9.31c-0.375-0.807-1.333-1.156-2.138-0.779c-0.804,0.376-1.153,1.332-0.778,2.138
			L109.938,11.458z"/>
		<path d="M128.176,3.507c0.375-0.807,0.027-1.762-0.778-2.138c-0.806-0.377-1.763-0.028-2.138,0.777l-4.341,9.31h3.549
			L128.176,3.507z"/>
		<path d="M129.746,13.803H118.81V1.666c0-0.887-0.721-1.608-1.608-1.608c-0.89,0-1.609,0.721-1.609,1.608v12.138h-9.779
			c-0.887,0-1.609,0.721-1.609,1.609s0.722,1.608,1.609,1.608h6.514c-0.706,5.256-3.356,8.181-7.544,10.955v3.712
			c5.8-3.212,9.912-7.887,10.725-14.667h0.083v14.752h3.217V17.021h0.083c0.82,6.829,4.979,11.521,10.843,14.735v-3.703
			c-4.255-2.798-6.949-5.729-7.661-11.032h7.671V13.803z"/>
		<path d="M62.834,5.454h5.182V2.237h-5.182V1.699c0-0.886-0.72-1.606-1.607-1.606c-0.89,0-1.611,0.721-1.611,1.606v0.539h-7.393
			V1.699c0-0.886-0.72-1.606-1.608-1.606c-0.889,0-1.609,0.721-1.609,1.606v0.539h-4.729c-0.888,0-1.61,0.721-1.61,1.609
			s0.722,1.607,1.61,1.607h4.729v1.564h3.217V5.454h7.393v1.564h1.447c-0.851,0.027-1.532,0.711-1.553,1.561H45.249
			c-0.887,0-1.608,0.721-1.608,1.608V24.93c0,1.183-0.514,2.223-1.329,2.936v3.718c2.626-1.028,4.488-3.536,4.54-6.525h0.007V11.797
			h12.647v6.023h0.004c0.017,2.951,0.843,5.705,2.263,8.06c-0.691,0.818-1.484,1.549-2.36,2.168v3.753
			c1.63-0.845,3.094-1.966,4.333-3.3c1.218,1.313,2.656,2.419,4.255,3.26v-3.769c-0.845-0.609-1.609-1.32-2.281-2.112
			c1.421-2.357,2.247-5.109,2.265-8.06h0.003v-2.185c0-0.888-0.72-1.609-1.608-1.609s-1.609,0.721-1.609,1.609v2.087
			c0,1.77-0.368,3.447-1.024,4.976c-0.655-1.529-1.023-3.207-1.023-4.976v-5.926h5.294V8.579H67.98
			c-0.042-0.85-0.74-1.529-1.601-1.529c-0.861,0-1.559,0.679-1.601,1.529h-2.061c-0.021-0.85-0.702-1.534-1.552-1.561h1.668V5.454z"
			/>
		<path d="M52.985,18.48h-1.918v-2.126h1.918V18.48z M55.024,23.432h-3.958v-2.268h3.958V23.432 M52.985,28.288h-1.918v-2.174h1.918
			V28.288 M49.727,13.67L49.727,13.67c-0.093,0-0.184,0.01-0.271,0.029c-0.174,0.033-0.337,0.104-0.479,0.199
			c-0.142,0.097-0.266,0.221-0.362,0.364c-0.145,0.214-0.229,0.471-0.229,0.749v15.954h1.289c0.017,0.001,0.035,0.004,0.054,0.004
			h7.981v-2.682h-2.039v-2.174h2.039v-1.541v-1.141v-2.268V18.48h-2.039v-2.126h2.039V13.67H49.727"/>
		<path d="M88.401,27.649V16.611H96.7v-3.332h-8.299v-8.54H97.7V1.407H76.789c-0.92,0-1.668,0.744-1.668,1.665
			c0,0.92,0.748,1.667,1.668,1.667h8.201v8.54h-7.202c-0.921,0-1.668,0.746-1.668,1.666s0.747,1.667,1.668,1.667h7.202v11.038
			h-9.534c-0.92,0-1.668,0.744-1.668,1.664c0,0.921,0.748,1.667,1.668,1.667h23.576v-3.332H88.401z"/>
	</g>
	<g>
		<path fill="#E60012" d="M32.24,16.12L7.898,8.222l3.133-3.132L32.24,16.12L13.574,2.545L16.12,0C7.217,0,0,7.217,0,16.12
			l4.764-4.765L32.24,16.12z"/>
		<path fill="#E60012" d="M16.12,0L32.24,16.12C32.24,7.217,25.023,0,16.12,0"/>
		<path fill="#E60012" d="M27.473,20.889L0,16.125v0.001l24.339,7.896l-3.134,3.132L0,16.128L18.663,29.7l-2.539,2.54
			c8.899-0.002,16.114-7.218,16.116-16.118L27.473,20.889z"/>
		<path fill="#E60012" d="M0,16.128c0.005,8.896,7.214,16.106,16.11,16.112L0,16.128z"/>
	</g>
</g>
</svg>
