<?xml version="1.0" encoding="utf-8"?>
<!-- Generator: Adobe Illustrator 16.0.0, SVG Export Plug-In . SVG Version: 6.00 Build 0)  -->
<!DOCTYPE svg PUBLIC "-//W3C//DTD SVG 1.1//EN" "http://www.w3.org/Graphics/SVG/1.1/DTD/svg11.dtd">
<svg version="1.1" id="レイヤー_1" xmlns="http://www.w3.org/2000/svg" xmlns:xlink="http://www.w3.org/1999/xlink" x="0px"
	 y="0px" width="162.396px" height="162.399px" viewBox="0 0 162.396 162.399" enable-background="new 0 0 162.396 162.399"
	 xml:space="preserve">
<g>
	<path fill="#E60012" d="M162.396,81.2L39.783,41.417l15.783-15.776L162.396,81.2L68.373,12.822L81.197,0C36.355,0,0,36.352,0,81.2
		l23.998-24.003L162.396,81.2z"/>
	<path fill="#E60012" d="M81.197,0l81.199,81.2C162.396,36.352,126.044,0,81.197,0"/>
	<path fill="#E60012" d="M138.381,105.219L0,81.227v0.007l122.601,39.776l-15.79,15.775L0,81.241l94.006,68.363l-12.787,12.794
		c44.825-0.01,81.167-36.357,81.177-81.188L138.381,105.219z"/>
	<path fill="#E60012" d="M0,81.241c0.027,44.815,36.339,81.128,81.15,81.158L0,81.241z"/>
</g>
</svg>
